<svg width="500" height="500" xmlns="http://www.w3.org/2000/svg">
  <path style="paint-order:fill;stroke-width:40px;stroke:#a1a3a8;fill-opacity:0;fill:rgba(0,0,0,.9);transform-origin:276.809px 280.392px" d="M83.354 63.722c16.916-6.105 362.276 201.58 362.276 221.333-.001 19.197-344.206 169.449-358.651 164.238-14.6-5.268-20.629-379.437-3.625-385.571Z" fill="none"/>
  <path style="stroke:#a1a3a8;stroke-width:23px;fill-opacity:0;fill:rgba(0,0,0,.9)" d="M316.766 187.298s-73.899 34.506-93.669 69.226c-13.174 23.144 39.738 119.912 39.738 119.912l180.947-90.861-127.016-98.277Z" fill="none"/>
  <path style="stroke:#a1a3a8;stroke-width:24px;fill-opacity:0;fill:rgba(0,0,0,.9)" d="M67.439 274.622s115.387-52.766 141.913-11.174c15.911 24.947 43.293 117.264 43.293 117.264L85.19 447.64 67.439 274.622Z" fill="none"/>
  <path style="stroke:#a1a3a8;stroke-width:23px;fill-opacity:0;fill:rgba(0,0,0,.9)" d="M168.912 108.305s28.628 77.397 22.707 116.202c-1.715 11.242-115.664 30.287-116.375 30.287-.709 0 4.967-186.665 4.967-186.665l88.701 40.176Zm15.611 13.598s10.103 75.783 28.659 87.322c18.324 11.394 87.005-24.894 87.005-24.894l-115.664-62.428Z" fill="none"/>
  <path d="M224.758 202.999c5.836-.135 12.477 1.839 15.966 4.944 3.411 3.036 5.607 8.956 4.967 13.289-.673 4.538-5.927 10.139-9.581 13.289-3.098 2.67-7.058 2.52-10.289 5.253-3.968 3.36-6.675 11.789-10.998 14.526-3.572 2.261-8.369 2.559-12.064 2.472-3.341-.078-6.642-1.127-9.223-2.472-2.459-1.28-4.576-2.918-6.034-5.255-1.692-2.712-3.107-6.913-2.839-10.507.288-3.813 2.418-7.55 4.969-11.744 3.075-5.055 7.323-12.418 13.127-16.379 5.871-4.006 15.336-7.266 21.999-7.416Z" style="stroke-width:2px;stroke:#a1a3a8;paint-order:stroke;stroke-opacity:0;fill-opacity:0;fill:rgba(0,0,0,.9)" fill="none"/>
  <path d="M224.759 202.997c5.708.186 14.133 2.105 18.094 5.564 3.827 3.343 6.245 9.966 5.678 14.524-.561 4.5-4.783 9.785-8.871 12.672-4.002 2.827-11.177 1.713-15.258 4.635-4.318 3.094-5.64 11.262-9.578 13.908-3.271 2.197-7.809 2.539-11.354 2.472-3.28-.06-6.643-1.127-9.224-2.472-2.459-1.28-4.578-2.652-6.032-5.255-1.926-3.448-3.716-9.836-2.839-14.832.948-5.4 6.896-13.885 9.225-16.381 1.118-1.198 1.967-.764 2.839-1.546 1.055-.946 1.29-2.664 2.837-4.017 2.094-1.829 5.816-4.064 9.581-5.562 4.242-1.688 9.661-3.88 14.902-3.71Z" style="stroke-opacity:0;stroke-width:0;stroke:#a1a3a8;fill:#a1a3a8"/>
</svg>
